<svg width="218" height="37" fill="none" xmlns="http://www.w3.org/2000/svg"><path d="M8.823 28l-3.067-5.567h-.861V28H1.303V13.252h6.029c1.162 0 2.15.203 2.962.61.826.406 1.442.966 1.849 1.68.406.7.609 1.485.609 2.353 0 .98-.28 1.856-.84 2.626-.547.77-1.359 1.317-2.437 1.639L12.878 28H8.823zm-3.928-8.11h2.227c.658 0 1.148-.16 1.47-.482.336-.322.504-.778.504-1.366 0-.56-.168-1.001-.504-1.323-.322-.322-.812-.484-1.47-.484H4.895v3.656zm21.372 2.06c0 .336-.02.686-.063 1.05h-8.13c.056.728.287 1.289.693 1.68.42.379.932.568 1.534.568.896 0 1.52-.378 1.87-1.135h3.823a5.18 5.18 0 01-1.071 2.08 5.216 5.216 0 01-1.912 1.45c-.77.35-1.632.525-2.584.525-1.148 0-2.17-.245-3.067-.735a5.23 5.23 0 01-2.1-2.101c-.505-.91-.757-1.975-.757-3.193 0-1.219.245-2.283.735-3.194a5.23 5.23 0 012.1-2.1c.897-.49 1.927-.735 3.089-.735 1.134 0 2.143.238 3.025.714a5.061 5.061 0 012.059 2.037c.504.883.756 1.912.756 3.089zm-3.676-.946c0-.616-.21-1.106-.63-1.47-.42-.364-.946-.546-1.576-.546-.602 0-1.113.175-1.534.525-.406.35-.658.847-.756 1.491h4.496zm12.315 3.95V28h-1.828c-1.302 0-2.318-.315-3.046-.945-.728-.645-1.092-1.688-1.092-3.13V19.26h-1.43v-2.983h1.429V13.42h3.592v2.857h2.353v2.984h-2.353v4.706c0 .35.084.602.252.756.168.154.448.23.84.23h1.282zm7.547 3.214c-1.148 0-2.185-.245-3.11-.735a5.474 5.474 0 01-2.163-2.101c-.518-.91-.777-1.975-.777-3.193 0-1.205.266-2.262.798-3.172a5.398 5.398 0 012.185-2.122c.924-.49 1.96-.735 3.11-.735 1.148 0 2.184.245 3.108.735a5.398 5.398 0 012.185 2.122c.532.91.798 1.967.798 3.172 0 1.204-.273 2.269-.819 3.193a5.403 5.403 0 01-2.206 2.1c-.924.491-1.96.736-3.109.736zm0-3.11c.686 0 1.268-.251 1.744-.755.49-.505.735-1.226.735-2.164 0-.939-.238-1.66-.714-2.164a2.242 2.242 0 00-1.723-.756c-.7 0-1.281.252-1.743.756-.463.49-.694 1.211-.694 2.164 0 .938.224 1.66.672 2.164a2.242 2.242 0 001.723.756zm19.826-8.78V28h-3.593v-1.597c-.364.519-.86.939-1.491 1.26-.616.309-1.303.463-2.059.463-.896 0-1.688-.196-2.374-.588-.686-.406-1.218-.988-1.596-1.744-.379-.756-.568-1.646-.568-2.668v-6.849h3.572v6.366c0 .784.203 1.393.609 1.828.406.434.952.65 1.639.65.7 0 1.253-.216 1.66-.65.405-.434.608-1.044.608-1.828v-6.366h3.593zm2.076 5.86c0-1.218.245-2.282.735-3.193a5.267 5.267 0 012.08-2.1c.896-.49 1.919-.735 3.067-.735 1.47 0 2.696.385 3.677 1.155.994.77 1.645 1.856 1.953 3.256h-3.823c-.322-.896-.945-1.344-1.87-1.344-.658 0-1.183.259-1.575.777-.392.504-.589 1.232-.589 2.185 0 .952.197 1.687.589 2.206.392.504.917.756 1.575.756.925 0 1.548-.448 1.87-1.345h3.823c-.308 1.373-.959 2.451-1.953 3.236-.995.784-2.22 1.176-3.677 1.176-1.148 0-2.17-.245-3.067-.735a5.267 5.267 0 01-2.08-2.101c-.49-.91-.735-1.975-.735-3.193zm20.85-5.987c1.344 0 2.423.449 3.235 1.345.812.882 1.219 2.1 1.219 3.655V28h-3.572v-6.365c0-.785-.203-1.394-.61-1.828-.405-.434-.951-.651-1.638-.651-.686 0-1.232.217-1.638.65-.406.435-.61 1.044-.61 1.829V28H78V12.454h3.592v5.4c.365-.52.862-.932 1.492-1.24.63-.309 1.338-.463 2.122-.463zm16.95 1.765a2.615 2.615 0 00-1.156-1.113c-.49-.266-1.071-.4-1.743-.4-1.163 0-2.094.386-2.794 1.156-.7.756-1.05 1.772-1.05 3.046 0 1.359.363 2.423 1.091 3.193.743.757 1.758 1.135 3.047 1.135.882 0 1.624-.224 2.227-.672.616-.449 1.064-1.093 1.344-1.933h-4.559V19.68h7.815v3.34a6.968 6.968 0 01-1.365 2.5c-.63.77-1.436 1.394-2.416 1.87-.981.476-2.087.714-3.32.714-1.456 0-2.758-.315-3.907-.945a6.976 6.976 0 01-2.668-2.668c-.63-1.135-.945-2.43-.945-3.887 0-1.456.315-2.752.945-3.886a6.788 6.788 0 012.668-2.668c1.135-.645 2.43-.967 3.887-.967 1.764 0 3.249.428 4.453 1.282 1.219.854 2.024 2.038 2.416 3.55h-3.97zm5.708 4.202c0-1.205.224-2.262.672-3.172.462-.91 1.086-1.611 1.87-2.101a4.854 4.854 0 012.626-.735c.826 0 1.548.168 2.164.504.63.336 1.113.777 1.449 1.323v-1.66h3.593V28h-3.593v-1.66c-.35.547-.84.988-1.47 1.324-.616.336-1.338.504-2.164.504a4.817 4.817 0 01-2.605-.735c-.784-.504-1.408-1.212-1.87-2.122-.448-.924-.672-1.989-.672-3.193zm8.781.02c0-.896-.252-1.603-.756-2.121a2.389 2.389 0 00-1.807-.777c-.714 0-1.323.259-1.827.777-.491.504-.736 1.204-.736 2.1 0 .897.245 1.611.736 2.144a2.455 2.455 0 001.827.777c.715 0 1.317-.26 1.807-.777.504-.519.756-1.226.756-2.122zm9.994-3.907a4.632 4.632 0 011.576-1.512 4.002 4.002 0 012.1-.568v3.803h-.987c-.896 0-1.569.196-2.017.588-.448.378-.672 1.05-.672 2.017V28h-3.592V16.277h3.592v1.954zm4.889 3.887c0-1.205.224-2.262.673-3.172.462-.91 1.085-1.611 1.869-2.101a4.856 4.856 0 012.626-.735c.827 0 1.548.168 2.164.504.63.336 1.114.777 1.45 1.323v-1.66h3.592V28h-3.592v-1.66c-.35.547-.841.988-1.471 1.324-.616.336-1.337.504-2.164.504a4.82 4.82 0 01-2.605-.735c-.784-.504-1.407-1.212-1.869-2.122-.449-.924-.673-1.989-.673-3.193zm8.782.02c0-.896-.252-1.603-.757-2.121a2.388 2.388 0 00-1.806-.777c-.715 0-1.324.259-1.828.777-.49.504-.735 1.204-.735 2.1 0 .897.245 1.611.735 2.144a2.456 2.456 0 001.828.777c.714 0 1.316-.26 1.806-.777.505-.519.757-1.226.757-2.122zm10.855-6.029c.826 0 1.547.168 2.164.505.63.336 1.113.777 1.449 1.323v-1.66h3.593V27.98c0 1.078-.218 2.052-.652 2.92-.42.882-1.071 1.583-1.953 2.1-.869.52-1.954.778-3.257.778-1.736 0-3.144-.413-4.222-1.24-1.079-.812-1.695-1.918-1.849-3.319h3.55c.112.449.378.799.799 1.05.42.267.938.4 1.554.4.743 0 1.331-.217 1.765-.651.448-.42.672-1.1.672-2.038v-1.66c-.35.547-.833.995-1.449 1.345-.617.336-1.338.504-2.164.504a4.851 4.851 0 01-2.626-.735c-.785-.504-1.408-1.212-1.87-2.122-.448-.924-.672-1.989-.672-3.193 0-1.205.224-2.262.672-3.172.462-.91 1.085-1.611 1.87-2.101a4.851 4.851 0 012.626-.735zm3.613 6.03c0-.897-.252-1.604-.756-2.122a2.39 2.39 0 00-1.807-.777 2.46 2.46 0 00-1.828.777c-.49.504-.735 1.204-.735 2.1 0 .897.245 1.611.735 2.144a2.459 2.459 0 001.828.777 2.39 2.39 0 001.807-.777c.504-.519.756-1.226.756-2.122zm17.452-.19c0 .337-.021.687-.063 1.051h-8.13c.056.728.287 1.289.693 1.68.42.379.931.568 1.533.568.897 0 1.52-.378 1.87-1.135h3.824a5.181 5.181 0 01-1.072 2.08 5.214 5.214 0 01-1.911 1.45c-.771.35-1.632.525-2.584.525-1.149 0-2.171-.245-3.068-.735a5.23 5.23 0 01-2.1-2.101c-.505-.91-.757-1.975-.757-3.193 0-1.219.245-2.283.736-3.194a5.23 5.23 0 012.1-2.1c.897-.49 1.926-.735 3.089-.735 1.134 0 2.142.238 3.025.714a5.06 5.06 0 012.058 2.037c.505.883.757 1.912.757 3.089zm-3.677-.945c0-.616-.21-1.106-.63-1.47-.42-.364-.945-.546-1.575-.546-.603 0-1.114.175-1.534.525-.406.35-.658.847-.756 1.491h4.495z" fill="#0065F2"/><path fill-rule="evenodd" clip-rule="evenodd" d="M177.738 17.677a.52.52 0 00.405.006.534.534 0 00.297-.296.253.253 0 00.012-.047l.824-5.338c.201-.719.848-1.84 1.614-1.993l3.554-.704a.464.464 0 00.463-.464c0-.255-.217-.463-.421-.46l-3.583-.704c-.737-.143-1.412-1.256-1.611-1.98l-.84-5.316a.248.248 0 00-.013-.046.524.524 0 00-.282-.291.527.527 0 00-.702.29.197.197 0 00-.013.048l-.822 5.295c-.197.721-.846 1.857-1.616 2.004l-3.54.7a.464.464 0 00-.464.465c0 .256.217.452.422.46l3.582.703c.738.148 1.413 1.26 1.611 1.98l.827 5.35a.256.256 0 00.013.048.526.526 0 00.283.29zm36.146 12.301a.272.272 0 00.206.003.269.269 0 00.158-.175l.418-2.712c.102-.365.431-.935.82-1.013l1.806-.357c.13 0 .236-.106.236-.236s-.111-.235-.214-.234l-1.821-.358c-.375-.073-.718-.638-.819-1.006l-.427-2.7a.097.097 0 00-.006-.024.27.27 0 00-.5 0 .195.195 0 00-.007.023l-.417 2.691c-.1.367-.43.943-.821 1.018l-1.799.356a.236.236 0 00-.236.236c0 .13.11.23.214.234l1.82.357c.375.076.719.64.819 1.006l.42 2.72a.268.268 0 00.15.172z" fill="#0065F2"/><path d="M208.974 15.805a.334.334 0 00-.303.335.673.673 0 01-.507.737l-.516.003.265.77s3.322-.02 3.223-1.106c-.077-.843-1.519-.8-2.162-.74zm-23.888 0a.334.334 0 01.303.335.673.673 0 00.507.737l.516.003-.265.77s-3.322-.02-3.223-1.106c.077-.843 1.519-.8 2.162-.74zm6.589 8.497l10.729-.063a.347.347 0 01.35.344l.011 1.818a.347.347 0 01-.346.348l-10.729.063a.347.347 0 01-.35-.344l-.011-1.817a.347.347 0 01.346-.349zm13.311-12.087a.7.7 0 00-.622-.406l-7.337-.15h-.023l-7.334.237a.7.7 0 00-.617.413l-2.105 4.711 10.087-.06h.023l10.089-.06-2.161-4.685zm3.559 7.664a.497.497 0 00-.613-.425l-4.271 1.04a.497.497 0 00-.307.224l-.846 1.393a.493.493 0 00.425.75h4.173a.503.503 0 00.275-.08c.984-.649 1.292-1.66 1.164-2.902zm-22.766 0a.496.496 0 01.613-.425l4.27 1.04a.497.497 0 01.307.224l.846 1.393a.492.492 0 01-.425.75h-4.172a.5.5 0 01-.275-.08c-.985-.649-1.293-1.66-1.164-2.902z" fill="#0065F2"/></svg>