<svg width="38" height="38" fill="none" xmlns="http://www.w3.org/2000/svg"><path d="M6.333 12.667A6.333 6.333 0 106.333 0a6.333 6.333 0 000 12.667z" fill="#0065F2"/><path d="M19 12.667A6.333 6.333 0 1019 0a6.333 6.333 0 000 12.667zM6.333 25.333a6.333 6.333 0 100-12.666 6.333 6.333 0 000 12.666z" fill="#0065F2"/><path d="M19 25.333a6.333 6.333 0 100-12.666 6.333 6.333 0 000 12.666zm12.667-12.666a6.333 6.333 0 100-12.667 6.333 6.333 0 000 12.667z" fill="#0065F2"/><path d="M31.667 25.333a6.333 6.333 0 100-12.666 6.333 6.333 0 000 12.666zM6.333 38a6.333 6.333 0 100-12.667 6.333 6.333 0 000 12.667z" fill="#0065F2"/><path d="M19 38a6.333 6.333 0 100-12.667A6.333 6.333 0 0019 38z" fill="#0065F2"/><path d="M31.667 38a6.333 6.333 0 100-12.667 6.333 6.333 0 000 12.667z" fill="#0065F2"/></svg>