<svg width="58" height="57" fill="none" xmlns="http://www.w3.org/2000/svg"><path d="M48.147 38.174c5.44-9.765 4.015-22.38-4.277-30.672-10.026-10.003-26.324-10.003-36.35 0-10.027 10.026-10.027 26.324 0 36.35 8.337 8.338 20.933 9.725 30.648 4.3l5.678 6.344c2.871 3.167 7.867 3.396 10.953.309 3.126-3.177 2.844-8.163-.309-10.976l-6.343-5.655zm-10.74-10.107h-1.89a10.067 10.067 0 01-1.203 2.888l1.341 1.341a2.375 2.375 0 11-3.36 3.36L30.96 34.32c-.887.545-1.856.958-2.894 1.21v1.88a2.375 2.375 0 01-2.376 2.376 2.375 2.375 0 01-2.376-2.376v-1.88a10.035 10.035 0 01-2.893-1.21l-1.337 1.338a2.368 2.368 0 01-1.68.696 2.375 2.375 0 01-1.68-4.056l1.342-1.342a10.06 10.06 0 01-1.202-2.887h-1.89a2.375 2.375 0 01-2.377-2.376 2.375 2.375 0 012.376-2.376h1.885c.25-1.038.663-2.006 1.205-2.893l-1.338-1.339a2.375 2.375 0 113.36-3.36l1.335 1.336a10.034 10.034 0 012.894-1.208v-1.88a2.375 2.375 0 012.376-2.375 2.375 2.375 0 012.376 2.376v1.879c1.038.251 2.008.664 2.894 1.208l1.335-1.335a2.375 2.375 0 113.36 3.36l-1.338 1.337a10.06 10.06 0 011.205 2.892h1.885a2.374 2.374 0 012.376 2.376 2.374 2.374 0 01-2.376 2.376z" fill="#0065F2"/><path d="M25.69 20.294a5.395 5.395 0 00-5.388 5.387c0 2.982 2.417 5.409 5.387 5.409 2.97 0 5.388-2.427 5.388-5.409a5.395 5.395 0 00-5.388-5.387z" fill="#0065F2"/></svg>