<svg width="45" height="45" fill="none" xmlns="http://www.w3.org/2000/svg"><path d="M14.18 0a1.575 1.575 0 00-1.575 1.576v3.15a1.576 1.576 0 103.15 0v-3.15A1.576 1.576 0 0014.18 0zm12.148 2.032a1.576 1.576 0 00-2.237 0L20.94 5.184a1.582 1.582 0 002.237 2.237l3.151-3.151a1.577 1.577 0 000-2.238zM5.184 20.94l-3.151 3.15a1.582 1.582 0 002.237 2.238l3.151-3.151a1.582 1.582 0 10-2.237-2.238zm-.457-5.184a1.576 1.576 0 000-3.152H1.576a1.575 1.575 0 100 3.152h3.15zM5.845 3.608a1.582 1.582 0 00-2.237 2.237l3.151 3.151A1.582 1.582 0 008.996 6.76l-3.15-3.151zM43.659 35.12L19.552 11.03a3.151 3.151 0 00-4.443 0l-4.08 4.08a3.151 3.151 0 000 4.443l24.09 24.106a1.576 1.576 0 002.237 0l6.303-6.302a1.576 1.576 0 000-2.237zM13.25 17.33l4.08-4.08 5.657 5.656-4.08 4.08-5.657-5.656z" fill="#0065F2"/></svg>