<svg width="41" height="33" fill="none" xmlns="http://www.w3.org/2000/svg"><path d="M37.52 28.273c3.865-4.224 3.476-9.649 3.464-9.71v-16.5a2.07 2.07 0 00-.6-1.459A2.041 2.041 0 0038.935 0h-12.29c-2.26 0-4.098 1.85-4.098 4.125v14.438c0 .547.216 1.071.6 1.458.385.387.906.604 1.449.604h6.305a5.99 5.99 0 01-.879 2.88c-1.04 1.651-3 2.78-5.83 3.349l-1.645.33V33h2.049c5.7 0 10.05-1.59 12.924-4.727zm-22.548 0c3.868-4.224 3.476-9.649 3.464-9.71v-16.5a2.07 2.07 0 00-.6-1.459A2.041 2.041 0 0016.388 0H4.097C1.837 0 0 1.85 0 4.125v14.438c0 .547.216 1.071.6 1.458s.905.604 1.448.604h6.306a5.99 5.99 0 01-.88 2.88c-1.04 1.651-3 2.78-5.83 3.349L0 27.184V33h2.048c5.701 0 10.05-1.59 12.924-4.727z" fill="#0065F2"/></svg>