<svg width="20" height="23" fill="none" xmlns="http://www.w3.org/2000/svg"><path fill-rule="evenodd" clip-rule="evenodd" d="M7.47 19.598a.582.582 0 00.449.007.59.59 0 00.329-.33.278.278 0 00.014-.052l.913-5.917c.223-.797.94-2.04 1.789-2.21l3.94-.78c.283 0 .514-.23.514-.514 0-.284-.24-.513-.467-.51l-3.972-.78c-.817-.16-1.566-1.393-1.786-2.197L8.262.423A.238.238 0 008.248.37a.584.584 0 00-.763-.329c-.15.06-.27.18-.33.329a.279.279 0 00-.013.052L6.23 6.294c-.218.8-.938 2.058-1.792 2.222l-3.925.776A.515.515 0 000 9.807c0 .283.24.5.468.51l3.97.78c.819.164 1.568 1.396 1.788 2.195l.916 5.931a.246.246 0 00.014.053c.058.145.17.26.314.322zm7.776 3.377a.296.296 0 00.228.004.3.3 0 00.168-.167.136.136 0 00.007-.027l.464-3.006c.113-.406.477-1.038.909-1.123l2.002-.397a.262.262 0 00.261-.261c0-.144-.122-.261-.237-.26l-2.019-.396c-.415-.08-.795-.708-.907-1.116l-.473-2.994a.119.119 0 00-.008-.026.296.296 0 00-.387-.167.3.3 0 00-.167.167.137.137 0 00-.007.026l-.463 2.983c-.111.407-.477 1.046-.91 1.13l-1.995.394a.262.262 0 00-.261.261c0 .144.122.255.237.26l2.018.396c.416.083.796.709.908 1.115l.466 3.014c.001.01.004.018.007.027.03.074.086.132.16.163z" fill="#0065F2"/></svg>