<svg width="278" height="230" fill="none" xmlns="http://www.w3.org/2000/svg"><rect opacity=".3" x="1.5" y="1.5" width="275" height="207" rx="8.5" stroke="#fff" stroke-width="3" stroke-dasharray="6 6"/><path d="M62 57.143A19.143 19.143 0 0181.143 38H196a19.143 19.143 0 0119.143 19.143v95.714A19.143 19.143 0 01196 172H81.143A19.143 19.143 0 0162 152.857V57.143zm9.571 86.143v9.571a9.57 9.57 0 009.572 9.572H196a9.573 9.573 0 009.571-9.572v-33.5l-36.151-18.635a4.78 4.78 0 00-5.523.89l-35.51 35.51-25.46-16.961a4.784 4.784 0 00-6.03.594l-25.326 22.531zm47.858-62.215a14.356 14.356 0 00-14.358-14.357 14.357 14.357 0 1014.358 14.357z" fill="#fff"/><g filter="url(#filter0_d_674_496)"><circle cx="208.5" cy="164.5" r="25.5" fill="#fff"/></g><path d="M218.222 167.53h-7.494v7.692h-5.234v-7.692H198v-4.838h7.494V155h5.234v7.692h7.494v4.838z" fill="#0065F2"/><defs><filter id="filter0_d_674_496" x="130" y="89" width="141" height="141" filterUnits="userSpaceOnUse" color-interpolation-filters="sRGB"><feFlood flood-opacity="0" result="BackgroundImageFix"/><feColorMatrix in="SourceAlpha" values="0 0 0 0 0 0 0 0 0 0 0 0 0 0 0 0 0 0 127 0" result="hardAlpha"/><feOffset dx="-8" dy="-5"/><feGaussianBlur stdDeviation="22.5"/><feComposite in2="hardAlpha" operator="out"/><feColorMatrix values="0 0 0 0 0 0 0 0 0 0 0 0 0 0 0 0 0 0 0.2 0"/><feBlend in2="BackgroundImageFix" result="effect1_dropShadow_674_496"/><feBlend in="SourceGraphic" in2="effect1_dropShadow_674_496" result="shape"/></filter></defs></svg>