<svg width="70" height="82" fill="none" xmlns="http://www.w3.org/2000/svg"><path d="M34.974 44.2a3.365 3.365 0 100 6.73 3.365 3.365 0 000-6.73zm-.059-19.082c-12.131 0-21.966 9.834-21.966 21.966 0 12.132 9.835 21.966 21.966 21.966 12.132 0 21.966-9.835 21.966-21.966 0-12.132-9.834-21.966-21.966-21.966zM46.471 41.55l-4.184 3.775c.22.72.368 1.465.368 2.239 0 2.052-.8 3.98-2.25 5.432a7.632 7.632 0 01-5.432 2.25c-2.052 0-3.98-.8-5.432-2.25a7.632 7.632 0 01-2.25-5.432c0-2.052.8-3.981 2.25-5.432a7.632 7.632 0 015.432-2.25c1.05 0 2.064.215 3.001.613l4.16-3.753a3.238 3.238 0 014.337 4.808z" fill="#0065F2"/><path d="M41.065 12.744v-2.06h4.523a1.08 1.08 0 001.08-1.08V2.158A2.158 2.158 0 0044.507 0H25.324a2.158 2.158 0 00-2.158 2.158v7.446c0 .596.483 1.08 1.079 1.08h4.523v2.06a34.773 34.773 0 00-16.4 7.727l-2.694-2.694a2.158 2.158 0 00-3.052 0l-5.285 5.285a2.158 2.158 0 000 3.052L4.77 29.55C1.757 34.71 0 40.69 0 47.084 0 66.337 15.663 82 34.916 82c19.253 0 34.916-15.663 34.916-34.916 0-17.152-12.442-31.422-28.767-34.34zm-6.15 61.702c-15.087 0-27.361-12.275-27.361-27.362 0-15.087 12.274-27.362 27.362-27.362 15.087 0 27.361 12.275 27.361 27.362 0 15.087-12.274 27.362-27.361 27.362z" fill="#0065F2"/></svg>