<svg width="61" height="103" fill="none" xmlns="http://www.w3.org/2000/svg"><path d="M60.913 30.412C60.913 13.642 47.27 0 30.5 0S.088 13.643.088 30.412c0 16.77 13.643 30.413 30.412 30.413 16.77 0 30.413-13.643 30.413-30.413zm-42.21 7.283h6.034a3.796 3.796 0 003.792 3.792h3.875a3.92 3.92 0 003.915-3.915 3.92 3.92 0 00-3.915-3.915h-3.807c-5.486 0-9.95-4.463-9.95-9.949 0-5.11 3.872-9.33 8.836-9.885V8.8h6.035v5.033c4.924.595 8.752 4.797 8.752 9.878h-6.034a3.923 3.923 0 00-3.919-3.918h-3.72a3.919 3.919 0 00-3.915 3.914 3.919 3.919 0 003.915 3.915h3.807c5.486 0 9.95 4.463 9.95 9.949 0 5.11-3.872 9.33-8.836 9.885v5.022h-6.035v-5.014c-4.928-.524-8.78-4.705-8.78-9.77zm31.855 23.133A36.234 36.234 0 0130.5 66.86c-7.405 0-14.3-2.222-20.058-6.032v13.209H.178V78.4L30.5 103l30.323-24.6v-4.363H50.558V60.828z" fill="#0065F2"/></svg>