<svg width="83" height="83" fill="none" xmlns="http://www.w3.org/2000/svg"><path d="M46.665.014c-1.337-.14-2.55.781-2.714 2.111a2.43 2.43 0 002.11 2.714c3.301.411 6.526 1.58 9.587 2.872a2.436 2.436 0 003.187-1.297 2.435 2.435 0 00-1.297-3.187C54.064 1.764 50.405.48 46.665.014zm27.304 19.748a2.431 2.431 0 00.468-3.408 41.491 41.491 0 00-7.953-7.952 2.431 2.431 0 10-2.94 3.876 36.51 36.51 0 017.017 7.016 2.433 2.433 0 003.408.468zm2.455 4.241a2.435 2.435 0 00-1.297 3.187c1.292 3.06 2.618 6.448 3.029 9.748a2.43 2.43 0 104.825-.603c-.466-3.74-1.908-7.562-3.37-11.036a2.441 2.441 0 00-3.187-1.296zM25.462 3.227a2.435 2.435 0 00-1.297 3.187 2.436 2.436 0 003.187 1.297c3.061-1.292 6.286-2.46 9.587-2.872a2.43 2.43 0 002.11-2.714c-.166-1.33-1.384-2.251-2.714-2.11-3.74.465-7.399 1.75-10.873 3.212zM41.5 83c20.811 0 38.91-15.714 41.48-36.335a2.432 2.432 0 00-2.11-2.714c-1.34-.15-2.55.779-2.714 2.11-2.27 18.195-18.293 32.076-36.656 32.076-20.113 0-36.637-16.524-36.637-36.637 0-8.864 3.518-17.491 9.24-24.08v.805a2.43 2.43 0 002.432 2.431 2.43 2.43 0 002.432-2.431v-6.877a2.43 2.43 0 00-2.432-2.432h-6.88a2.43 2.43 0 100 4.862h1.172C4.09 21.309 0 31.248 0 41.5 0 64.294 18.706 83 41.5 83z" fill="#0065F2"/><path d="M12.158 41.5c0 16.09 13.251 29.342 29.342 29.342 16.09 0 29.342-13.251 29.342-29.342 0-16.09-13.251-29.342-29.342-29.342-16.09 0-29.342 13.252-29.342 29.342zm31.774-9.726a2.43 2.43 0 012.431-2.432 2.43 2.43 0 012.432 2.432v7.295h4.863v-7.295a2.43 2.43 0 012.432-2.432 2.43 2.43 0 012.431 2.432v19.453a2.43 2.43 0 01-2.431 2.431 2.43 2.43 0 01-2.432-2.431v-7.295h-7.295a2.43 2.43 0 01-2.431-2.432v-9.726zm-12.159 2.431a2.433 2.433 0 00-2.431 2.432 2.43 2.43 0 01-2.432 2.432 2.43 2.43 0 01-2.431-2.432c0-4.023 3.272-7.295 7.294-7.295a7.303 7.303 0 017.295 7.295c0 4.863-3.236 7.29-5.837 9.24-1.44 1.08-2.466 1.945-3.117 2.918h6.523a2.43 2.43 0 012.431 2.432 2.43 2.43 0 01-2.431 2.431H26.91a2.43 2.43 0 01-2.431-2.431c0-4.863 3.236-7.29 5.836-9.24 2.484-1.864 3.89-3.032 3.89-5.35a2.433 2.433 0 00-2.432-2.432z" fill="#0065F2"/></svg>