<?xml version="1.0" standalone="no"?>
<!DOCTYPE svg PUBLIC "-//W3C//DTD SVG 20010904//EN"
 "http://www.w3.org/TR/2001/REC-SVG-20010904/DTD/svg10.dtd">
<svg version="1.0" xmlns="http://www.w3.org/2000/svg"
 width="1080.000000pt" height="1080.000000pt" viewBox="0 0 1080.000000 1080.000000"
 preserveAspectRatio="xMidYMid meet">
<metadata>
Created by potrace 1.14, written by Peter Selinger 2001-2017
</metadata>
<g transform="translate(0.000000,1080.000000) scale(0.100000,-0.100000)"
fill="#000000" stroke="none">
<path d="M0 5400 l0 -5400 5400 0 5400 0 0 5400 0 5400 -5400 0 -5400 0 0
-5400z m3728 1918 c6 -7 27 -116 47 -243 42 -266 62 -320 135 -367 14 -9 97
-31 185 -48 157 -31 185 -41 185 -64 -1 -28 -26 -40 -136 -62 -66 -13 -143
-29 -172 -35 -29 -6 -66 -22 -83 -36 -58 -49 -76 -103 -115 -355 -20 -136 -41
-239 -49 -247 -19 -20 -63 -6 -70 22 -3 12 -21 123 -40 247 -38 238 -50 274
-112 332 -24 22 -53 31 -193 59 -91 17 -171 37 -178 42 -7 6 -12 22 -10 36 3
25 8 27 183 62 177 36 180 37 211 73 54 62 65 100 100 330 19 122 38 231 44
244 11 24 51 30 68 10z m2168 -974 c17 -2 38 -12 46 -22 16 -18 190 -393 185
-398 -4 -5 -1677 -18 -1677 -13 0 21 182 406 196 415 27 18 487 32 889 27 182
-2 344 -6 361 -9z m-1578 -364 c5 -34 30 -60 59 -60 26 0 26 0 13 -36 -11 -27
-11 -27 -88 -21 -142 10 -212 51 -182 106 16 32 46 40 125 38 66 -2 70 -3 73
-27z m2111 15 c68 -35 39 -91 -60 -117 -66 -17 -179 -24 -179 -10 0 4 -3 17
-6 30 -5 18 -2 22 17 22 29 0 59 27 59 55 0 12 3 25 7 28 12 13 134 7 162 -8z
m-1850 -331 l193 -47 39 -61 c84 -131 77 -136 -169 -136 -181 0 -186 0 -218
25 -17 13 -41 44 -53 68 -33 67 -27 197 9 197 3 0 92 -21 199 -46z m1652 36
c16 -9 19 -22 19 -73 0 -74 -25 -134 -72 -177 l-32 -30 -184 0 c-187 0 -222 6
-222 38 0 10 19 49 43 87 l42 70 185 47 c217 54 197 51 221 38z m493 -137 c2
-10 12 -65 21 -123 26 -160 42 -181 153 -201 127 -22 135 -48 20 -69 -40 -7
-83 -16 -95 -21 -39 -15 -57 -58 -78 -188 -18 -111 -23 -126 -40 -126 -18 0
-22 15 -41 126 -28 177 -35 185 -172 209 -65 12 -96 29 -80 45 3 3 43 13 89
22 125 24 138 40 163 208 9 61 19 116 21 123 6 18 33 15 39 -5z m-966 -265
c13 -13 17 -165 4 -185 -11 -18 -915 -31 -937 -13 -11 9 -15 33 -15 94 0 44 4
87 8 93 8 13 80 15 688 21 176 1 243 -1 252 -10z m-578 -894 l0 -116 30 26
c81 67 212 55 274 -26 38 -51 46 -100 46 -281 l0 -168 -77 3 -78 3 -5 166 c-4
144 -8 170 -24 187 -40 46 -124 35 -151 -19 -11 -21 -15 -67 -15 -184 l0 -156
-77 3 -78 3 -3 338 -2 337 80 0 80 0 0 -116z m925 57 c73 -32 130 -93 150
-158 6 -23 5 -23 -76 -23 -75 0 -85 2 -110 26 -59 57 -166 51 -226 -12 -37
-39 -47 -81 -41 -160 5 -61 26 -96 78 -131 39 -27 125 -31 169 -8 30 15 81 70
81 86 0 5 -45 9 -100 9 l-100 0 0 55 0 55 171 0 171 0 -4 -87 c-3 -81 -6 -92
-36 -136 -68 -97 -169 -143 -296 -134 -88 6 -152 33 -206 87 -57 57 -82 118
-88 212 -10 163 63 277 211 330 70 25 183 20 252 -11z m-4127 -7 c70 -35 102
-88 102 -168 0 -76 -28 -129 -85 -164 -25 -15 -45 -30 -45 -34 0 -3 27 -53 61
-110 33 -56 65 -111 70 -120 9 -17 3 -18 -79 -18 l-89 0 -64 118 c-49 89 -70
118 -87 120 -22 3 -22 2 -22 -117 l0 -121 -75 0 -75 0 0 320 0 320 168 0 c161
0 170 -1 220 -26z m1002 -39 l0 -65 50 0 50 0 0 -65 0 -65 -50 0 -51 0 3 -117
3 -118 48 -3 47 -3 0 -71 0 -71 -74 5 c-81 5 -125 25 -160 71 -19 25 -21 45
-24 168 l-4 139 -29 0 -29 0 0 65 0 65 30 0 30 0 0 65 0 65 80 0 80 0 0 -65z
m-425 -83 c80 -41 123 -107 132 -207 l6 -65 -180 0 -180 0 4 -24 c13 -65 107
-94 156 -48 20 19 34 22 100 22 87 0 90 -4 54 -62 -45 -73 -113 -108 -214
-108 -167 0 -261 105 -251 279 7 120 59 194 162 227 57 19 161 12 211 -14z
m961 13 c67 -20 126 -72 154 -136 18 -42 21 -66 18 -123 -8 -152 -93 -236
-246 -244 -170 -10 -278 91 -277 258 1 186 165 301 351 245z m1229 4 c24 -6
62 -27 85 -46 37 -32 80 -97 80 -123 0 -6 -31 -10 -80 -10 -76 0 -83 2 -104
27 -29 33 -84 37 -116 8 -48 -43 -51 -165 -5 -211 36 -36 89 -33 123 6 25 29
30 30 105 30 l79 0 -6 -27 c-12 -51 -59 -106 -115 -135 -74 -39 -174 -40 -249
-2 -161 80 -175 349 -22 450 64 42 142 54 225 33z m1952 -28 l43 -31 0 30 0
30 75 0 75 0 0 -255 0 -255 -75 0 -75 0 0 35 0 36 -40 -33 c-34 -27 -51 -33
-104 -36 -147 -9 -239 90 -239 258 0 78 16 130 53 177 68 87 198 107 287 44z
m653 -46 l0 -85 -51 0 c-43 0 -55 -5 -80 -29 l-29 -29 0 -146 0 -146 -80 0
-80 0 0 255 0 255 80 0 80 0 0 -37 0 -37 29 28 c26 25 89 55 119 56 9 0 12
-23 12 -85z m368 70 c20 -9 47 -26 59 -37 l23 -21 0 31 0 32 80 0 80 0 -2
-252 -3 -253 -77 -3 -78 -3 0 37 0 38 -27 -26 c-42 -39 -67 -48 -129 -48 -103
0 -176 54 -211 156 -21 62 -14 185 14 239 55 104 171 151 271 110z m633 5 c20
-6 48 -21 63 -35 l26 -24 0 29 0 30 80 0 80 0 0 -278 c0 -318 -5 -348 -72
-413 -50 -49 -95 -64 -188 -63 -126 0 -216 55 -249 153 -6 19 -11 36 -11 37 0
2 33 4 74 4 69 0 77 -2 104 -30 25 -25 39 -30 77 -30 38 0 52 5 76 29 25 26
29 37 29 86 l0 56 -36 -28 c-30 -22 -49 -28 -103 -31 -119 -6 -196 56 -227
181 -51 205 96 377 277 327z m747 -25 c78 -42 122 -123 122 -222 l0 -43 -175
0 c-167 0 -175 -1 -175 -19 0 -11 11 -32 24 -48 31 -36 93 -39 129 -5 20 19
34 22 105 22 l82 0 -11 -27 c-34 -89 -122 -143 -234 -143 -167 0 -268 116
-252 290 10 109 71 187 177 221 50 17 154 4 208 -26z m-5148 -120 c0 -197 17
-235 104 -235 22 0 45 9 63 24 l28 24 3 166 3 166 80 0 79 0 -2 -252 -3 -253
-77 -3 -78 -3 0 36 0 36 -22 -22 c-34 -32 -81 -49 -138 -49 -66 0 -123 29
-157 82 -28 41 -28 43 -31 235 l-4 193 76 0 76 0 0 -145z"/>
<path d="M1740 4275 l0 -75 68 0 c87 0 112 16 112 71 0 61 -25 79 -110 79
l-70 0 0 -75z"/>
<path d="M2365 4205 c-47 -46 -36 -55 70 -55 52 0 95 3 95 6 0 12 -24 50 -39
61 -9 7 -35 13 -59 13 -32 0 -49 -6 -67 -25z"/>
<path d="M3360 4192 c-34 -35 -45 -85 -31 -139 15 -56 43 -78 98 -78 38 0 49
5 74 33 24 27 29 41 29 83 0 87 -34 129 -105 129 -27 0 -44 -8 -65 -28z"/>
<path d="M6557 4199 c-55 -43 -56 -149 -1 -200 37 -35 104 -34 139 2 51 51 50
147 -2 195 -34 31 -99 33 -136 3z"/>
<path d="M7634 4209 c-46 -23 -69 -109 -44 -173 14 -38 67 -68 109 -62 73 11
115 88 92 166 -20 68 -93 100 -157 69z"/>
<path d="M8267 4200 c-54 -42 -59 -132 -11 -189 45 -54 127 -48 168 11 19 26
21 109 5 141 -30 58 -112 76 -162 37z"/>
<path d="M8895 4205 c-47 -46 -36 -55 70 -55 106 0 117 9 70 55 -34 35 -106
35 -140 0z"/>
</g>
</svg>
