<svg width="24" height="24" fill="none" xmlns="http://www.w3.org/2000/svg"><g opacity=".7" fill="#0065F2"><path fill-rule="evenodd" clip-rule="evenodd" d="M12 22.08c5.567 0 10.08-4.513 10.08-10.08S17.567 1.92 12 1.92 1.92 6.433 1.92 12 6.433 22.08 12 22.08zM12 24c6.627 0 12-5.373 12-12S18.627 0 12 0 0 5.373 0 12s5.373 12 12 12z"/><path d="M12.88 6.857l-.27 7.15h-1.96l-.27-7.15h2.5zM11.664 17.83c-.405 0-.739-.13-1-.389a1.386 1.386 0 01-.378-.985c0-.398.126-.731.378-1 .261-.268.595-.403 1-.403.396 0 .72.135.973.403.26.269.391.602.391 1 0 .388-.13.717-.391.986-.253.258-.577.388-.973.388z"/></g></svg>