<svg width="216" height="139" fill="none" xmlns="http://www.w3.org/2000/svg"><path fill-rule="evenodd" clip-rule="evenodd" d="M31.218 81.905a2.432 2.432 0 001.876.029 2.471 2.471 0 001.377-1.374c.026-.072.047-.145.059-.22l3.816-24.729c.93-3.332 3.927-8.53 7.476-9.235l16.467-3.261a2.153 2.153 0 002.149-2.15c0-1.184-1.008-2.145-1.952-2.129l-16.603-3.265c-3.414-.665-6.541-5.82-7.464-9.177L34.528 1.767a.988.988 0 00-.06-.215A2.44 2.44 0 0033.16.204a2.422 2.422 0 00-1.877-.029 2.459 2.459 0 00-1.376 1.375 1.163 1.163 0 00-.059.219l-3.806 24.536c-.913 3.34-3.92 8.6-7.488 9.286L2.149 38.836A2.152 2.152 0 000 40.985c0 1.185 1.005 2.093 1.954 2.13l16.597 3.261c3.42.686 6.55 5.834 7.467 9.175l3.831 24.79c.012.075.03.148.06.219a2.444 2.444 0 001.309 1.345zm167.481 56.992a1.24 1.24 0 00.954.014c.318-.126.573-.381.699-.698a.536.536 0 00.03-.111l1.94-12.566c.472-1.693 1.995-4.334 3.798-4.692l8.368-1.657c.601 0 1.091-.491 1.091-1.093s-.511-1.09-.991-1.082l-8.437-1.659c-1.734-.338-3.324-2.957-3.792-4.663l-1.978-12.513a.465.465 0 00-.03-.11 1.237 1.237 0 00-.665-.685 1.25 1.25 0 00-1.653.684.607.607 0 00-.03.112l-1.934 12.467c-.464 1.698-1.992 4.37-3.805 4.718l-8.335 1.649c-.602 0-1.092.491-1.092 1.092 0 .603.511 1.064.993 1.083l8.433 1.657c1.738.348 3.328 2.964 3.795 4.661l1.946 12.597a.536.536 0 00.03.111c.124.309.359.552.665.684z" fill="#0065F2"/><path d="M168.762 73.23a1.543 1.543 0 00-1.397 1.552 3.121 3.121 0 01-2.337 3.416l-2.38.014 1.222 3.566s15.317-.092 14.859-5.123c-.355-3.905-7.003-3.71-9.967-3.425zm-110.145 0c.798.075 1.406.75 1.397 1.552a3.12 3.12 0 002.337 3.416l2.38.014-1.222 3.566s-15.317-.092-14.86-5.123c.356-3.905 7.004-3.71 9.968-3.425zm30.381 39.371l49.472-.295a1.602 1.602 0 011.612 1.593l.05 8.423a1.603 1.603 0 01-1.593 1.613l-49.471.295a1.603 1.603 0 01-1.612-1.593l-.05-8.424a1.603 1.603 0 011.592-1.612zm61.375-56.005a3.23 3.23 0 00-2.869-1.88l-33.827-.694h-.106L79.753 55.12a3.228 3.228 0 00-2.844 1.914L67.205 78.86l46.509-.278h.106l46.515-.278-9.962-21.709zm16.407 35.509a2.291 2.291 0 00-2.826-1.967l-19.691 4.814a2.292 2.292 0 00-1.416 1.041l-3.901 6.457a2.289 2.289 0 001.959 3.472h19.24c.45.003.89-.126 1.268-.37 4.539-3.006 5.959-7.688 5.367-13.447zm-104.967 0a2.292 2.292 0 012.826-1.967l19.692 4.814a2.3 2.3 0 011.415 1.041l3.901 6.457a2.288 2.288 0 01-1.96 3.472H68.449c-.45.003-.89-.126-1.268-.37-4.54-3.006-5.96-7.688-5.367-13.447z" fill="#0065F2"/></svg>