<svg width="38" height="38" fill="none" xmlns="http://www.w3.org/2000/svg"><path d="M4.75 9.5a4.75 4.75 0 100-9.5 4.75 4.75 0 000 9.5z" fill="#0065F2"/><path d="M14.25 9.5a4.75 4.75 0 100-9.5 4.75 4.75 0 000 9.5zM4.75 19a4.75 4.75 0 100-9.5 4.75 4.75 0 000 9.5z" fill="#0065F2"/><path d="M14.25 19a4.75 4.75 0 100-9.5 4.75 4.75 0 000 9.5zm9.5-9.5a4.75 4.75 0 100-9.5 4.75 4.75 0 000 9.5z" fill="#0065F2"/><path d="M23.75 19a4.75 4.75 0 100-9.5 4.75 4.75 0 000 9.5zm-19 9.5a4.75 4.75 0 100-9.5 4.75 4.75 0 000 9.5z" fill="#0065F2"/><path d="M14.25 28.5a4.75 4.75 0 100-9.5 4.75 4.75 0 000 9.5z" fill="#0065F2"/><path d="M23.75 28.5a4.75 4.75 0 100-9.5 4.75 4.75 0 000 9.5zm9.5-19a4.75 4.75 0 100-9.5 4.75 4.75 0 000 9.5zm0 9.5a4.75 4.75 0 100-9.5 4.75 4.75 0 000 9.5z" fill="#0065F2"/><path d="M33.25 28.5a4.75 4.75 0 100-9.5 4.75 4.75 0 000 9.5zM4.75 38a4.75 4.75 0 100-9.5 4.75 4.75 0 000 9.5z" fill="#0065F2"/><path d="M14.25 38a4.75 4.75 0 100-9.5 4.75 4.75 0 000 9.5z" fill="#0065F2"/><path d="M23.75 38a4.75 4.75 0 100-9.5 4.75 4.75 0 000 9.5z" fill="#0065F2"/><path d="M33.25 38a4.75 4.75 0 100-9.5 4.75 4.75 0 000 9.5z" fill="#0065F2"/></svg>