<svg width="1018" height="63" fill="none" xmlns="http://www.w3.org/2000/svg"><path opacity=".5" d="M326 28l.358-1.457L326 28zM5.156 17.685a1.5 1.5 0 00-.911-2.858l.911 2.858zm6.626-5.055a1.5 1.5 0 00.776 2.898l-.776-2.898zm8.345 1.02a1.5 1.5 0 10-.674-2.924l.674 2.923zm6.987-4.572a1.5 1.5 0 10.59 2.942l-.59-2.942zm8.248 1.501a1.5 1.5 0 00-.52-2.954l.52 2.954zm7.242-4.234a1.5 1.5 0 10.457 2.965l-.457-2.965zm8.18 1.852a1.5 1.5 0 00-.401-2.974l.4 2.974zm7.388-3.952a1.5 1.5 0 10.348 2.98l-.348-2.98zm8.096 2.14a1.5 1.5 0 10-.3-2.986l.3 2.985zm7.505-3.708a1.5 1.5 0 00.254 2.99l-.254-2.99zM81.8 5.064a1.5 1.5 0 10-.21-2.992l.21 2.992zm7.619-3.488a1.5 1.5 0 00.169 2.995l-.17-2.995zm7.975 2.607a1.5 1.5 0 00-.13-2.997l.13 2.997zM105.13.898a1.5 1.5 0 10.091 2.999L105.13.898zm7.868 2.811a1.5 1.5 0 10-.054-3l.054 3zm7.771-3.093a1.5 1.5 0 00.018 3l-.018-3zm7.834 2.998a1.499 1.499 0 10.017-3l-.017 3zm7.89-2.912a1.5 1.5 0 10-.05 3l.05-3zm7.717 3.174a1.5 1.5 0 00.084-3l-.084 3zm7.917-2.739a1.5 1.5 0 00-.115 2.998l.115-2.998zm7.722 3.342a1.5 1.5 0 10.148-2.996l-.148 2.996zm7.939-2.572a1.5 1.5 0 00-.178 2.994l.178-2.994zm7.615 3.498a1.5 1.5 0 00.209-2.993l-.209 2.993zm8.053-2.407a1.5 1.5 0 10-.238 2.99l.238-2.99zm7.509 3.646a1.5 1.5 0 10.267-2.988l-.267 2.988zm8.091-2.249a1.5 1.5 0 10-.296 2.985l.296-2.985zm7.462 3.793a1.5 1.5 0 00.324-2.983l-.324 2.983zm8.105-2.1a1.5 1.5 0 10-.353 2.98l.353-2.98zm7.425 3.936a1.5 1.5 0 00.38-2.975l-.38 2.975zm8.118-1.952a1.5 1.5 0 10-.407 2.972l.407-2.972zm7.362 4.071a1.5 1.5 0 00.434-2.968l-.434 2.968zm8.149-1.807a1.5 1.5 0 00-.46 2.965l.46-2.965zm7.273 4.198a1.5 1.5 0 10.486-2.96l-.486 2.96zm8.197-1.66a1.5 1.5 0 00-.511 2.955l.511-2.956zm7.188 4.32a1.5 1.5 0 10.536-2.951l-.536 2.951zm8.236-1.518a1.5 1.5 0 00-.562 2.947l.562-2.947zm7.106 4.44a1.5 1.5 0 10.585-2.942l-.585 2.942zm8.266-1.38a1.5 1.5 0 00-.61 2.938l.61-2.938zm7.028 4.557a1.5 1.5 0 00.634-2.932l-.634 2.932zm8.289-1.244a1.5 1.5 0 00-.658 2.927l.658-2.927zm6.953 4.67a1.5 1.5 0 00.681-2.922l-.681 2.922zm8.307-1.111a1.5 1.5 0 00-.705 2.916l.705-2.916zm7.097 4.824a1.5 1.5 0 10.714-2.914l-.714 2.914zm8.504-1.012a1.5 1.5 0 10-.709 2.915l.709-2.915zm6.905 4.76a1.5 1.5 0 00.703-2.917l-.703 2.917zm8.589-1.023a1.499 1.499 0 10-.697 2.918l.697-2.918zm6.973 4.742a1.5 1.5 0 00.691-2.92l-.691 2.92zm8.518-1.08a1.5 1.5 0 00-.682 2.922l.682-2.921zm7.046 4.715a1.5 1.5 0 10.673-2.923l-.673 2.924zm8.467-1.14a1.5 1.5 0 10-.663 2.925l.663-2.926zm7.095 4.669a1.5 1.5 0 10.652-2.928l-.652 2.928zm8.455-1.209a1.5 1.5 0 10-.639 2.931l.639-2.931zm7.118 4.602a1.5 1.5 0 00.624-2.935l-.624 2.935zm8.468-1.29a1.5 1.5 0 10-.607 2.938l.607-2.938zm7.112 4.506a1.501 1.501 0 00.587-2.942l-.587 2.942zm8.496-1.394a1.5 1.5 0 00-.564 2.947l.564-2.947zm7.25 4.41a1.5 1.5 0 00.538-2.951l-.538 2.95zm8.35-1.566a1.5 1.5 0 10-.508 2.956l.508-2.956zm7.42 4.273a1.5 1.5 0 10.473-2.963l-.473 2.963zm8.311-1.763a1.5 1.5 0 10-.433 2.969l.433-2.969zm7.427 4.055a1.5 1.5 0 10.387-2.975l-.387 2.975zm8.314-2.015a1.5 1.5 0 00-.333 2.981l.333-2.981zm7.646 3.79a1.5 1.5 0 10.27-2.988l-.27 2.988zm8.18-2.364a1.5 1.5 0 10-.2 2.993l.2-2.993zm7.791 3.421a1.5 1.5 0 10.12-2.997l-.12 2.997zm8.035-2.796a1.5 1.5 0 10-.031 3l.031-3zm7.98 2.955a1.5 1.5 0 10-.065-2.999l.065 3zm7.844-3.304a1.5 1.5 0 10.166 2.995l-.166-2.995zm8.162 2.413a1.5 1.5 0 00-.27-2.988l.27 2.988zm7.599-3.832a1.499 1.499 0 10.37 2.977l-.37-2.977zm8.304 1.862a1.5 1.5 0 00-.464-2.964l.464 2.964zm7.344-4.3a1.5 1.5 0 00.547 2.95l-.547-2.95zm8.395 1.393a1.5 1.5 0 10-.618-2.935l.618 2.935zm7.131-4.649a1.5 1.5 0 10.675 2.923l-.675-2.923zm8.444 1.062a1.5 1.5 0 00-.72-2.912l.72 2.912zm6.988-4.868a1.5 1.5 0 00.753 2.903l-.753-2.903zm8.478.863a1.5 1.5 0 10-.776-2.897l.776 2.897zm6.933-4.987a1.5 1.5 0 00.791 2.894l-.791-2.894zm8.474.78a1.5 1.5 0 10-.799-2.892l.799 2.892zm6.845-5.01a1.5 1.5 0 00.802 2.89l-.802-2.89zm8.473.764a1.5 1.5 0 00-.801-2.891l.801 2.891zm6.926-5.024a1.5 1.5 0 10.796 2.893l-.796-2.893zm8.465.793a1.5 1.5 0 00-.788-2.894l.788 2.894zm6.873-4.968a1.499 1.499 0 10.78 2.896l-.78-2.896zm8.536.825a1.5 1.5 0 00-.769-2.9l.769 2.9zm6.896-4.917a1.5 1.5 0 10.758 2.903l-.758-2.903zm8.549.897a1.5 1.5 0 10-.73-2.91l.73 2.91zm7.051-4.801a1.5 1.5 0 10.688 2.92l-.688-2.92zm8.448 1.151a1.499 1.499 0 10-.647-2.93l.647 2.93zm7.185-4.6a1.5 1.5 0 00.606 2.938l-.606-2.938zm8.413 1.381a1.5 1.5 0 10-.568-2.946l.568 2.946zm7.301-4.409a1.5 1.5 0 00.53 2.953l-.53-2.953zm8.378 1.595a1.5 1.5 0 00-.493-2.959l.493 2.96zm7.408-4.227a1.5 1.5 0 00.457 2.965l-.457-2.965zm8.335 1.795a1.501 1.501 0 00-.423-2.97l.423 2.97zm7.506-4.054a1.5 1.5 0 10.39 2.975l-.39-2.974zm8.292 1.985a1.5 1.5 0 10-.357-2.979l.357 2.979zm7.594-3.888a1.501 1.501 0 00.325 2.983l-.325-2.983zm8.25 2.162a1.5 1.5 0 10-.293-2.985l.293 2.985zm7.668-3.726a1.5 1.5 0 10.263 2.988l-.263-2.988zm8.21 2.33a1.5 1.5 0 10-.232-2.99l.232 2.99zm7.732-3.57a1.5 1.5 0 00.203 2.993l-.203-2.993zm8.17 2.492a1.5 1.5 0 00-.174-2.995l.174 2.995zm7.808-3.42a1.5 1.5 0 10.145 2.996l-.145-2.996zm8.106 2.648a1.5 1.5 0 00-.117-2.998l.117 2.998zm7.883-3.273a1.5 1.5 0 10.09 2.999l-.09-3zM831.5 8.84a1.5 1.5 0 10-.062-3l.062 3zm7.956-3.127a1.5 1.5 0 10.034 3l-.034-3zm8 2.946a1.5 1.5 0 00-.007-3l.007 3zm7.98-2.982a1.5 1.5 0 00-.02 3l.02-3zm7.967 3.09a1.5 1.5 0 10.048-3l-.048 3zm8.029-2.836a1.5 1.5 0 00-.075 3l.075-3zm7.894 3.235a1.5 1.5 0 00.102-2.998l-.102 2.998zm8.109-2.687a1.5 1.5 0 00-.131 2.997l.131-2.997zm7.811 3.38a1.5 1.5 0 00.158-2.997l-.158 2.996zm8.145-2.536a1.5 1.5 0 00-.188 2.994l.188-2.994zm7.783 3.531a1.5 1.5 0 10.217-2.992l-.217 2.992zm8.182-2.375a1.5 1.5 0 00-.247 2.99l.247-2.99zm7.656 3.684a1.499 1.499 0 10.278-2.987l-.278 2.987zm8.275-2.197a1.5 1.5 0 10-.311 2.983l.311-2.983zm7.621 3.858a1.5 1.5 0 10.346-2.98l-.346 2.98zm8.285-2.008a1.5 1.5 0 00-.383 2.976l.383-2.976zm7.49 4.044a1.5 1.5 0 10.424-2.97l-.424 2.97zm8.318-1.783a1.5 1.5 0 10-.469 2.963l.469-2.963zm7.371 4.27a1.5 1.5 0 10.519-2.955l-.519 2.955zm8.4-1.492a1.5 1.5 0 00-.578 2.944l.578-2.944zm7.203 4.564a1.5 1.5 0 10.648-2.929l-.648 2.93zm8.502-1.066a1.5 1.5 0 10-.74 2.907l.74-2.907zm6.923 5.025c.79.24 1.63-.21 1.86-1.002.24-.793-.2-1.63-1-1.87l-.86 2.872zm8.47-.302a1.506 1.506 0 00-1.94.865c-.29.774.1 1.641.87 1.937l1.07-2.802zM1.502 18.913c1.144-.406 2.363-.816 3.654-1.228l-.911-2.858c-1.32.421-2.57.841-3.747 1.26l1.004 2.826zm11.056-3.385c2.358-.632 4.881-1.26 7.569-1.879l-.674-2.923a223.429 223.429 0 00-7.67 1.904l.775 2.898zm15.147-3.508a323.77 323.77 0 017.657-1.44l-.52-2.955c-2.682.472-5.259.957-7.728 1.453l.59 2.942zM43.06 9.31a411.77 411.77 0 017.722-1.113l-.4-2.974a419.1 419.1 0 00-7.78 1.122l.458 2.965zm15.46-2.085c2.52-.295 5.103-.575 7.748-.84l-.3-2.986c-2.66.267-5.26.55-7.796.846l.348 2.98zm15.507-1.558c2.54-.216 5.13-.417 7.772-.603l-.21-2.992a542.15 542.15 0 00-7.816.605l.254 2.99zm15.56-1.096c2.558-.144 5.16-.274 7.806-.388l-.13-2.997c-2.658.115-5.273.245-7.845.39l.169 2.995zm15.634-.674a633.85 633.85 0 017.777-.188l-.054-3a640.28 640.28 0 00-7.814.189l.091 2.999zm15.566-.281c2.573-.016 5.178-.017 7.816-.002l.017-3c-2.65-.015-5.267-.014-7.851.002l.018 3zm15.656.086c2.56.043 5.149.1 7.767.174l.084-3c-2.629-.072-5.23-.13-7.801-.174l-.05 3zm15.569.433c2.586.1 5.198.215 7.837.344l.148-2.996c-2.65-.13-5.273-.245-7.87-.346l-.115 2.998zm15.598.766c2.574.154 5.172.321 7.793.504l.209-2.993a763.23 763.23 0 00-7.824-.505L167.61 4.9zm15.608 1.088c2.561.204 5.143.422 7.747.655l.267-2.988a799.367 799.367 0 00-7.776-.658l-.238 2.99zM198.76 7.38c2.566.255 5.152.524 7.758.808l.324-2.983a828.81 828.81 0 00-7.786-.81l-.296 2.985zm15.51 1.688c2.574.304 5.167.623 7.778.956l.38-2.975c-2.62-.335-5.222-.655-7.805-.96l-.353 2.979zm15.489 1.976c2.573.352 5.163.718 7.769 1.1l.434-2.97a899.772 899.772 0 00-7.796-1.102l-.407 2.972zm15.458 2.257c2.562.397 5.14.808 7.733 1.233l.486-2.96a902.3 902.3 0 00-7.759-1.238l-.46 2.965zm15.419 2.528c2.552.441 5.118.896 7.699 1.365l.536-2.951c-2.589-.47-5.164-.927-7.724-1.37l-.511 2.956zm15.373 2.794c2.542.484 5.098.982 7.668 1.493l.585-2.942a937.501 937.501 0 00-7.691-1.498l-.562 2.947zm15.324 3.05c2.533.527 5.079 1.067 7.638 1.62l.634-2.932a963.8 963.8 0 00-7.662-1.625l-.61 2.938zm15.269 3.303c2.525.568 5.062 1.149 7.611 1.743l.681-2.922a969.534 969.534 0 00-7.634-1.748l-.658 2.927zm15.213 3.548c1.273.307 2.548.618 3.827.932l.716-2.913a984.657 984.657 0 00-3.838-.935l-.705 2.916zm3.827.932c1.334.328 2.659.654 3.975.976l.714-2.914-3.973-.975-.716 2.913zm11.77 2.879c2.571.626 5.109 1.24 7.614 1.845l.703-2.917c-2.502-.604-5.038-1.218-7.608-1.843l-.709 2.915zm15.506 3.74c2.593.62 5.15 1.228 7.67 1.824l.691-2.92c-2.519-.595-5.073-1.203-7.664-1.822l-.697 2.918zm15.506 3.666c2.615.611 5.191 1.209 7.728 1.794l.673-2.924c-2.533-.584-5.106-1.18-7.719-1.791l-.682 2.921zm15.532 3.578c2.629.596 5.214 1.177 7.758 1.744l.652-2.928c-2.539-.566-5.121-1.146-7.747-1.742l-.663 2.926zm15.574 3.466c2.631.574 5.216 1.13 7.757 1.67l.624-2.934c-2.536-.539-5.116-1.095-7.742-1.667l-.639 2.931zm15.618 3.32c2.622.54 5.194 1.063 7.719 1.567l.587-2.942c-2.518-.502-5.084-1.024-7.699-1.564l-.607 2.938zm15.651 3.12c2.657.509 5.261.996 7.814 1.462l.538-2.951a910.65 910.65 0 01-7.788-1.458l-.564 2.947zm15.656 2.853c2.7.465 5.341.903 7.928 1.317l.473-2.963a680.149 680.149 0 01-7.893-1.31l-.508 2.956zm15.806 2.523c2.678.39 5.297.753 7.86 1.086l.387-2.975a500.52 500.52 0 01-7.814-1.08l-.433 2.969zm15.841 2.052c2.72.304 5.377.573 7.979.809l.27-2.988c-2.58-.234-5.216-.5-7.916-.802l-.333 2.981zm15.959 1.438c2.719.182 5.38.324 7.991.428l.12-2.997a296.707 296.707 0 01-7.911-.424l-.2 2.993zm15.995.631c2.716.029 5.383.013 8.011-.044l-.065-2.999a246.6 246.6 0 01-7.915.044l-.031 3zm16.021-.352c2.693-.15 5.354-.345 7.996-.583l-.27-2.988c-2.607.235-5.234.427-7.892.575l.166 2.995zm15.965-1.438a254.45 254.45 0 007.934-1.115l-.464-2.964c-2.615.409-5.224.776-7.84 1.102l.37 2.977zm15.825-2.466c2.597-.481 5.209-1 7.848-1.556l-.618-2.935a329.19 329.19 0 01-7.777 1.541l.547 2.95zm15.654-3.282a519.45 519.45 0 007.769-1.861l-.72-2.912a516.612 516.612 0 01-7.724 1.85l.675 2.923zm15.51-3.826a993.232 993.232 0 007.725-2.04l-.776-2.897c-2.62.702-5.185 1.38-7.702 2.034l.753 2.903zm15.449-4.133c2.508-.686 5.067-1.39 7.683-2.114l-.799-2.892c-2.615.723-5.171 1.427-7.675 2.112l.791 2.894zm15.33-4.233l7.671-2.127-.801-2.891-7.672 2.127.802 2.89zm15.393-4.258c2.503-.689 5.058-1.389 7.669-2.1l-.788-2.894a3204.87 3204.87 0 00-7.677 2.101l.796 2.893zm15.322-4.172c2.533-.68 5.117-1.372 7.756-2.071l-.769-2.9c-2.642.7-5.23 1.392-7.767 2.075l.78 2.896zm15.41-4.085c1.301-.34 2.614-.681 3.941-1.025l-.752-2.904c-1.329.344-2.644.686-3.947 1.026l.758 2.903zm3.941-1.025c1.281-.332 2.565-.659 3.85-.981l-.73-2.91a498.42 498.42 0 00-3.872.987l.752 2.904zm11.589-2.862a562.242 562.242 0 017.76-1.769l-.647-2.93a570.508 570.508 0 00-7.801 1.779l.688 2.92zm15.551-3.431c2.597-.536 5.2-1.055 7.807-1.557l-.568-2.946c-2.62.505-5.235 1.026-7.845 1.565l.606 2.938zm15.638-3.013a647.57 647.57 0 017.848-1.358l-.493-2.959c-2.631.438-5.26.893-7.885 1.364l.53 2.953zm15.713-2.62c2.625-.406 5.251-.795 7.878-1.17l-.423-2.97c-2.639.377-5.276.768-7.912 1.175l.457 2.965zm15.774-2.249c2.634-.345 5.269-.675 7.902-.99l-.357-2.979a722.21 722.21 0 00-7.935.995l.39 2.974zm15.821-1.895c2.644-.288 5.286-.562 7.925-.82l-.293-2.986c-2.65.26-5.302.534-7.957.823l.325 2.983zm15.856-1.559c2.653-.233 5.303-.452 7.947-.658l-.232-2.99a795.5 795.5 0 00-7.978.66l.263 2.988zm15.882-1.235a822.33 822.33 0 017.967-.501l-.174-2.995c-2.659.154-5.324.322-7.996.503l.203 2.993zm15.92-.925a838.84 838.84 0 017.961-.348l-.117-2.998c-2.654.104-5.318.22-7.989.35l.145 2.996zm15.934-.622c2.659-.08 5.308-.146 7.946-.2l-.062-3c-2.646.055-5.305.122-7.974.2l.09 3zm15.936-.327a875.7 875.7 0 017.966-.054l-.007-3a894.19 894.19 0 00-7.993.054l.034 3zm15.926-.036c2.679.018 5.342.048 7.987.09l.048-3a881.564 881.564 0 00-8.015-.09l-.02 3zm15.941.253c2.676.067 5.333.146 7.969.236l.102-2.998a882.34 882.34 0 00-7.996-.237l-.075 3zm15.947.546c2.672.116 5.319.243 7.942.382l.158-2.996a839.351 839.351 0 00-7.969-.383l-.131 2.997zm15.899.841c2.687.168 5.345.347 7.971.537l.217-2.992c-2.637-.19-5.304-.37-8-.54l-.188 2.995zm15.906 1.152c2.67.22 5.305.452 7.903.694l.278-2.987a757.448 757.448 0 00-7.934-.697l-.247 2.99zm15.867 1.48c2.689.281 5.334.573 7.932.875l.346-2.98c-2.61-.303-5.266-.596-7.967-.878l-.311 2.983zm15.834 1.843c2.682.346 5.307.702 7.873 1.068l.424-2.97a589.26 589.26 0 00-7.914-1.074l-.383 2.976zm15.722 2.248c2.691.426 5.306.862 7.84 1.307l.519-2.955a470.626 470.626 0 00-7.89-1.315l-.469 2.963zm15.662 2.759c2.707.53 5.302 1.072 7.781 1.62l.648-2.929a331.32 331.32 0 00-7.851-1.635l-.578 2.944zm15.543 3.461c2.743.7 5.303 1.407 7.663 2.118l.86-2.872c-2.4-.725-5-1.444-7.783-2.153l-.74 2.907zm15.063 4.618c1.3.498 2.5.994 3.58 1.486l1.24-2.73a68.06 68.06 0 00-3.75-1.558l-1.07 2.802z" fill="#0065F2"/></svg>