<svg width="85" height="85" fill="none" xmlns="http://www.w3.org/2000/svg"><g clip-path="url(#clip0_90_2451)" fill="#0065F2"><path d="M68.157 37.345h-.123c-2.366 0-4.358 2.01-4.358 4.595v3.582a1.294 1.294 0 01-2.586 0v-6.615c0-2.584-1.876-4.687-4.242-4.687-2.378 0-4.254 2.103-4.254 4.687v7.012a1.293 1.293 0 01-2.586 0v-8.937c0-2.583-1.951-4.625-4.316-4.625h-.132c-2.306 0-4.234 1.936-4.234 4.43V46.85a1.293 1.293 0 01-2.586 0v-9.77c0-.033-.003-.066-.003-.098 0-.08.003-.16.003-.238V13.9c0-2.584-1.95-4.686-4.314-4.686-2.365 0-4.315 2.1-4.317 4.683l-.026 37.882a1.294 1.294 0 01-2.292.82l-4.524-5.505a6.886 6.886 0 00-4.86-2.57 6.739 6.739 0 00-5.063 1.816c-.016.015-.032.032-.05.047l-.885.74 15.682 30.137C30.567 82.021 35.248 85 40.307 85h18.128c7.715 0 13.997-6.788 14.005-15.102.004-4.402.008-7.705.012-10.365.01-7.111.012-9.727-.006-17.56-.005-2.578-1.93-4.628-4.29-4.628z"/><path d="M22.661 14.352c.714 0 1.293-.578 1.293-1.292a10.426 10.426 0 0115.65-9.065 10.424 10.424 0 015.2 9.065 1.293 1.293 0 002.585 0 13.01 13.01 0 10-26.02 0c0 .714.579 1.292 1.292 1.292z"/></g><defs><clipPath id="clip0_90_2451"><path fill="#fff" d="M0 0h85v85H0z"/></clipPath></defs></svg>